<?xml version="1.0" encoding="utf-8"?>
<!-- Generator: Adobe Illustrator 26.1.0, SVG Export Plug-In . SVG Version: 6.00 Build 0)  -->
<svg version="1.1" id="Layer_1" xmlns="http://www.w3.org/2000/svg" xmlns:xlink="http://www.w3.org/1999/xlink" x="0px"
  y="0px" viewBox="0 0 532 322.9" style="enable-background:new 0 0 532 322.9;" xml:space="preserve">
  <style type="text/css">
    .st0 {
      fill: #754E9E;
    }
  </style>
  <g>
    <path class="st0" d="M86.5,167.8l-8.9,73c-2.4-2-5.3-3.9-8.7-5.5c-5.3-2.5-11.4-3.7-18.2-3.7c-8.3,0-15.6,1.5-21.9,4.5
		c-6.3,3-11.6,6.9-16,11.8c-4.3,4.9-7.6,10.3-9.7,16.2C1.1,270,0,275.9,0,281.8c0,7.4,1.8,14.2,5.3,20.4c3.5,6.3,8.5,11.3,14.8,15
		c6.3,3.7,13.5,5.6,21.5,5.6c5.7,0,10.8-1.3,15.4-3.8c3.8-2.1,7.7-4.6,11.7-7.5l-1.2,8.9h27.1l18.8-152.7H86.5z M71.8,287.3
		c-1.9,2.8-4.1,5.2-6.4,7.1c-2.3,1.9-4.7,3.3-7.3,4.3c-2.5,1-5.2,1.5-8,1.5c-4.5,0-8.5-0.9-11.8-2.7c-3.4-1.8-5.9-4.4-7.7-7.7
		c-1.8-3.4-2.7-7.3-2.7-11.8c0-5.2,1.1-9.6,3.2-13.3c2.1-3.7,5.1-6.5,9-8.5c3.9-2,8.3-3,13.4-3c3.6,0,6.9,0.6,9.8,1.6
		c2.9,1.1,5.3,2.6,7.3,4.6c1.9,2,3.2,4.4,3.9,7.3L71.8,287.3z" />
    <path class="st0" d="M232.5,231.7c-5.6,0-11.1,1.6-16.6,4.8c-5.3,3.1-10,7.1-14.1,11.8c-0.7-5.8-3.1-10.1-7.2-12.7
		c-4.2-2.6-9.7-4-16.6-4c-7.1,0-13.4,1.6-18.9,4.7c-5.4,3.1-10,7.4-13.9,12.9l-0.3-13.3h-24.6l-10.3,84.6h27.1l4.3-35
		c0.6-4.9,2-9.7,4-14.3c2-4.6,4.6-8.5,7.9-11.5c3.3-3,7.1-4.5,11.3-4.5c3.7,0.3,6.1,1.6,7,4c0.9,2.4,1.2,5.5,1,9.2l-6.4,52.3h27.1
		l4.3-34.7c0.6-5,2-9.9,4.1-14.6c2.1-4.7,4.8-8.6,8.1-11.6c3.4-3,7.2-4.5,11.6-4.5c3.7,0.3,6,1.6,6.7,4c0.7,2.4,0.9,5.5,0.7,9.2
		l-6.4,52.3h26.9l7.7-63.5c0.8-7.5-1-13.6-5.4-18.3C247.3,234,240.9,231.7,232.5,231.7z" />
    <path class="st0" d="M338.7,244.7c-1.5-2.2-3.2-4.2-5.3-6.1c-2.2-2-5.1-3.6-8.6-4.9c-3.6-1.3-8.2-1.9-13.8-1.9
		c-7,0-13.4,1.4-19.2,4.2c-5.8,2.8-10.8,6.5-15.1,11.2c-4.3,4.7-7.5,10-9.9,15.9c-2.3,5.9-3.5,12-3.5,18.3c0,8.8,1.7,16.3,5.1,22.5
		c3.4,6.2,7.8,10.9,13.1,14.1c5.3,3.2,10.7,4.8,16.3,4.6c5.7,0.1,10.7-0.6,15-2c4.3-1.5,7.9-3.2,10.8-5.1c2.9-1.9,5.1-3.6,6.7-5.1
		c0.1-0.1,0.2-0.2,0.3-0.2l-1.2,10.6h27.1l10.3-84.6h-25.2L338.7,244.7z M333.2,288c-1.7,2.8-3.6,5.2-5.8,7.1
		c-2.2,1.9-4.5,3.3-6.9,4.3c-2.4,1-4.9,1.5-7.5,1.5c-4.3,0-8-0.9-11.3-2.8c-3.3-1.9-5.8-4.5-7.6-7.9c-1.8-3.4-2.7-7.5-2.7-12.1
		c0-2.6,0.5-5.3,1.4-8c0.9-2.8,2.4-5.4,4.4-7.8c2-2.5,4.5-4.5,7.6-6c3.1-1.5,6.8-2.3,11.2-2.3c3.5,0,6.6,0.6,9.3,1.6
		c2.7,1.1,5,2.6,6.8,4.6c1.8,2,3,4.4,3.7,7.3L333.2,288z" />
    <path class="st0"
      d="M430.1,234.3c-4.5,1.7-8.8,4.3-13.2,7.7c-4.3,3.4-8,7.6-11.1,12.7l0.8-18.8h-24.4l-10.3,84.6h26.9l4.1-33.1
		c0.6-4.9,2.5-9.7,5.4-14.3c3-4.6,6.9-8.4,11.8-11.2c4.9-2.8,10.5-3.9,16.6-3.1l4.6-27.1C438.3,231.7,434.5,232.6,430.1,234.3z" />
    <polygon class="st0" points="532,248.3 517.5,233.8 473.5,263.4 485.2,167.8 458,167.8 439.5,320.6 466.6,320.6 470.2,291
		478.4,285.3 494.8,320.6 526.4,320.6 499.3,270.9 	" />
    <polygon class="st0" points="363.5,94.5 446,0 394.2,0 263.8,149.3 203.8,93.4 222,67.9 262.5,103.1 352.1,0 181.2,0 154.4,187.7
		416.8,187.7 	" />
  </g>
</svg>