<?xml version="1.0" encoding="utf-8"?>
<!-- Generator: Adobe Illustrator 26.1.0, SVG Export Plug-In . SVG Version: 6.00 Build 0)  -->
<svg version="1.1" id="Layer_1" xmlns="http://www.w3.org/2000/svg" xmlns:xlink="http://www.w3.org/1999/xlink" x="0px"
  y="0px" viewBox="0 0 640.6 132" style="enable-background:new 0 0 640.6 132;" xml:space="preserve">
  <style type="text/css">
    .st0 {
      fill: #754E9E;
    }
  </style>
  <g>
    <g>
      <path class="st0" d="M66.3,13.1l-6.8,56c-1.8-1.6-4-3-6.7-4.2c-4.1-1.9-8.7-2.8-13.9-2.8c-6.3,0-11.9,1.1-16.8,3.4
			c-4.8,2.3-8.9,5.3-12.2,9C6.6,78.3,4.1,82.5,2.4,87C0.8,91.5,0,96,0,100.5c0,5.6,1.4,10.9,4.1,15.7c2.7,4.8,6.5,8.6,11.3,11.5
			c4.8,2.9,10.3,4.3,16.5,4.3c4.4,0,8.3-1,11.8-2.9c2.9-1.6,5.9-3.5,9-5.7l-0.9,6.9h20.8L86.9,13.1H66.3z M55,104.7
			c-1.5,2.2-3.1,4-4.9,5.4c-1.8,1.4-3.6,2.5-5.6,3.3c-1.9,0.7-4,1.1-6.2,1.1c-3.5,0-6.5-0.7-9.1-2.1c-2.6-1.4-4.6-3.4-5.9-5.9
			c-1.4-2.6-2.1-5.6-2.1-9.1c0-4,0.8-7.3,2.4-10.2c1.6-2.8,3.9-5,6.9-6.5c3-1.5,6.4-2.3,10.2-2.3c2.8,0,5.3,0.4,7.5,1.3
			c2.2,0.8,4.1,2,5.6,3.6c1.5,1.5,2.5,3.4,3,5.6L55,104.7z" />
      <path class="st0" d="M178.2,62.1c-4.3,0-8.5,1.2-12.7,3.7c-4.1,2.4-7.7,5.4-10.8,9c-0.5-4.5-2.4-7.7-5.5-9.7c-3.2-2-7.4-3-12.7-3
			c-5.4,0-10.3,1.2-14.5,3.6c-4.1,2.4-7.6,5.7-10.7,9.9l-0.2-10.2H92.3l-7.9,64.8h20.8l3.3-26.9c0.5-3.8,1.5-7.4,3-11
			c1.5-3.6,3.6-6.5,6.1-8.8c2.5-2.3,5.4-3.5,8.7-3.5c2.9,0.2,4.6,1.2,5.3,3c0.7,1.8,0.9,4.2,0.7,7l-4.9,40.1h20.8l3.3-26.6
			c0.5-3.9,1.5-7.6,3.1-11.2c1.6-3.6,3.7-6.6,6.2-8.9c2.6-2.3,5.5-3.5,8.9-3.5c2.9,0.2,4.6,1.2,5.1,3c0.5,1.8,0.7,4.2,0.5,7
			l-4.9,40.1h20.6l5.9-48.7c0.6-5.7-0.8-10.4-4.2-14C189.5,63.9,184.6,62.1,178.2,62.1z" />
      <path class="st0" d="M259.5,72c-1.1-1.7-2.5-3.2-4.1-4.7c-1.7-1.5-3.9-2.8-6.6-3.8c-2.7-1-6.3-1.5-10.6-1.5
			c-5.3,0-10.2,1.1-14.7,3.2c-4.5,2.1-8.3,5-11.6,8.6c-3.3,3.6-5.8,7.7-7.6,12.2c-1.8,4.5-2.7,9.2-2.7,14c0,6.7,1.3,12.5,3.9,17.2
			c2.6,4.7,6,8.4,10,10.8c4.1,2.5,8.2,3.7,12.5,3.6c4.4,0.1,8.2-0.4,11.5-1.6c3.3-1.1,6.1-2.4,8.3-3.9c2.2-1.5,3.9-2.8,5.1-3.9
			c0.1-0.1,0.1-0.1,0.2-0.2l-0.9,8.1h20.8l7.9-64.8h-19.3L259.5,72z M255.3,105.3c-1.3,2.2-2.8,4-4.5,5.4c-1.7,1.4-3.4,2.5-5.3,3.3
			c-1.8,0.7-3.7,1.1-5.7,1.1c-3.3,0-6.2-0.7-8.7-2.2c-2.5-1.4-4.5-3.5-5.9-6.1c-1.4-2.6-2.1-5.7-2.1-9.3c0-2,0.3-4,1-6.2
			c0.7-2.1,1.8-4.1,3.3-6c1.5-1.9,3.5-3.4,5.9-4.6c2.4-1.2,5.2-1.8,8.6-1.8c2.7,0,5,0.4,7.1,1.3c2.1,0.8,3.8,2,5.2,3.6
			c1.4,1.5,2.3,3.4,2.8,5.6L255.3,105.3z" />
      <path class="st0" d="M329.6,64.1c-3.4,1.3-6.8,3.3-10.1,5.9c-3.3,2.6-6.2,5.9-8.5,9.7l0.6-14.4h-18.7l-7.9,64.8h20.6l3.1-25.4
			c0.5-3.8,1.9-7.4,4.2-11c2.3-3.6,5.3-6.4,9.1-8.6c3.8-2.2,8-3,12.8-2.4l3.6-20.8C335.9,62.1,333,62.8,329.6,64.1z" />
      <polygon class="st0" points="407.7,74.9 396.6,63.7 362.9,86.4 371.8,13.1 351,13.1 336.8,130.2 357.5,130.2 360.3,107.6
			366.6,103.2 379.2,130.2 403.4,130.2 382.6,92.2 		" />
    </g>
    <polygon class="st0" points="640.6,0 604.7,0 514.3,103.6 472.7,64.8 485.3,47.1 513.4,71.6 575.5,0 457,0 438.3,130.2
		620.4,130.2 583.4,65.5 	" />
  </g>
</svg>