<?xml version="1.0" encoding="utf-8"?>
<!-- Generator: Adobe Illustrator 26.1.0, SVG Export Plug-In . SVG Version: 6.00 Build 0)  -->
<svg version="1.1" id="Layer_1" xmlns="http://www.w3.org/2000/svg" xmlns:xlink="http://www.w3.org/1999/xlink" x="0px" y="0px"
	 viewBox="0 0 532 344.2" style="enable-background:new 0 0 532 344.2;" xml:space="preserve">
<style type="text/css">
	.st0{fill:#754E9E;}
	.st1{fill:#6CCDF4;}
</style>
<g>
	<g>
		<path class="st0" d="M86.5,189.1l-8.9,73c-2.4-2-5.3-3.9-8.7-5.5c-5.3-2.5-11.4-3.7-18.2-3.7c-8.3,0-15.6,1.5-21.9,4.5
			c-6.3,3-11.6,6.9-16,11.8c-4.3,4.9-7.6,10.3-9.7,16.2C1.1,291.3,0,297.2,0,303.1c0,7.4,1.8,14.2,5.3,20.4
			c3.5,6.3,8.5,11.3,14.8,15c6.3,3.7,13.5,5.6,21.5,5.6c5.7,0,10.8-1.3,15.4-3.8c3.8-2.1,7.7-4.6,11.7-7.5l-1.2,8.9h27.1l18.8-152.7
			H86.5z M71.8,308.6c-1.9,2.8-4.1,5.2-6.4,7.1c-2.3,1.9-4.7,3.3-7.3,4.3c-2.5,1-5.2,1.5-8,1.5c-4.5,0-8.5-0.9-11.8-2.7
			c-3.4-1.8-5.9-4.4-7.7-7.7c-1.8-3.4-2.7-7.3-2.7-11.8c0-5.2,1.1-9.6,3.2-13.3c2.1-3.7,5.1-6.5,9-8.5c3.9-2,8.3-3,13.4-3
			c3.6,0,6.9,0.6,9.8,1.6c2.9,1.1,5.3,2.6,7.3,4.6c1.9,2,3.2,4.4,3.9,7.3L71.8,308.6z"/>
		<path class="st0" d="M232.5,253c-5.6,0-11.1,1.6-16.6,4.8c-5.3,3.1-10,7.1-14.1,11.8c-0.7-5.8-3.1-10.1-7.2-12.7
			c-4.2-2.6-9.7-4-16.6-4c-7.1,0-13.4,1.6-18.9,4.7c-5.4,3.1-10,7.4-13.9,12.9l-0.3-13.3h-24.6l-10.3,84.6h27.1l4.3-35
			c0.6-4.9,2-9.7,4-14.3c2-4.6,4.6-8.5,7.9-11.5c3.3-3,7.1-4.5,11.3-4.5c3.7,0.3,6.1,1.6,7,4c0.9,2.4,1.2,5.5,1,9.2l-6.4,52.3h27.1
			l4.3-34.7c0.6-5,2-9.9,4.1-14.6c2.1-4.7,4.8-8.6,8.1-11.6c3.4-3,7.2-4.5,11.6-4.5c3.7,0.3,6,1.6,6.7,4c0.7,2.4,0.9,5.5,0.7,9.2
			l-6.4,52.3h26.9l7.7-63.5c0.8-7.5-1-13.6-5.4-18.3C247.3,255.3,240.9,253,232.5,253z"/>
		<path class="st0" d="M338.7,266c-1.5-2.2-3.2-4.2-5.3-6.1c-2.2-2-5.1-3.6-8.6-4.9c-3.6-1.3-8.2-1.9-13.8-1.9
			c-7,0-13.4,1.4-19.2,4.2c-5.8,2.8-10.8,6.5-15.1,11.2c-4.3,4.7-7.5,10-9.9,15.9c-2.3,5.9-3.5,12-3.5,18.3c0,8.8,1.7,16.3,5.1,22.5
			c3.4,6.2,7.8,10.9,13.1,14.1c5.3,3.2,10.7,4.8,16.3,4.6c5.7,0.1,10.7-0.6,15-2c4.3-1.5,7.9-3.2,10.8-5.1c2.9-1.9,5.1-3.6,6.7-5.1
			c0.1-0.1,0.2-0.2,0.3-0.2l-1.2,10.6h27.1l10.3-84.6h-25.2L338.7,266z M333.2,309.3c-1.7,2.8-3.6,5.2-5.8,7.1
			c-2.2,1.9-4.5,3.3-6.9,4.3c-2.4,1-4.9,1.5-7.5,1.5c-4.3,0-8-0.9-11.3-2.8c-3.3-1.9-5.8-4.5-7.6-7.9c-1.8-3.4-2.7-7.5-2.7-12.1
			c0-2.6,0.4-5.3,1.4-8c0.9-2.8,2.4-5.4,4.4-7.8c2-2.5,4.5-4.5,7.6-6c3.1-1.5,6.8-2.3,11.2-2.3c3.5,0,6.6,0.6,9.3,1.6
			c2.7,1.1,5,2.6,6.8,4.6c1.8,2,3,4.4,3.7,7.3L333.2,309.3z"/>
		<path class="st0" d="M430.1,255.6c-4.5,1.7-8.8,4.3-13.2,7.7c-4.3,3.4-8,7.6-11.1,12.7l0.8-18.8h-24.4l-10.3,84.6h26.9l4.1-33.1
			c0.6-4.9,2.5-9.7,5.4-14.3c3-4.6,6.9-8.4,11.8-11.2c4.9-2.8,10.5-3.9,16.6-3.1l4.6-27.1C438.3,253,434.5,253.9,430.1,255.6z"/>
		<polygon class="st0" points="532,269.6 517.5,255.1 473.5,284.7 485.1,189.1 458,189.1 439.5,341.8 466.6,341.8 470.2,312.3 
			478.4,306.6 494.8,341.8 526.4,341.8 499.3,292.2 		"/>
	</g>
	<g>
		<polygon class="st1" points="446,21.3 181.2,21.3 154.4,209 416.8,209 363.5,115.8 		"/>
	</g>
	<g>
		<polygon class="st0" points="263.8,170.6 203.8,114.7 222,89.2 262.5,124.4 370.6,0 394.2,21.3 		"/>
	</g>
</g>
</svg>
